REM MD5 eca4cf24b8dd960dc71bf31c36b8cbed
FILE "Choro Q 2 (Japan).bin" BINARY
  TRACK 01 MODE2/2352
    INDEX 01 00:00:00
  TRACK 02 AUDIO
    INDEX 00 42:04:58
    INDEX 01 42:06:58
  TRACK 03 AUDIO
    INDEX 00 46:32:64
    INDEX 01 46:34:64
REM LEADOUT 52:05:13
